<svg width="110" height="67" viewBox="0 0 110 67" fill="none" xmlns="http://www.w3.org/2000/svg">
<g clip-path="url(#clip0_4_86)">
<path d="M7.67969 32.3008C7.15104 32.1732 6.74089 31.9635 6.44922 31.6719C6.17578 31.362 5.96615 31.0065 5.82031 30.6055C5.69271 30.1862 5.60156 29.7305 5.54688 29.2383C5.51042 28.7461 5.46484 28.2357 5.41016 27.707C5.48307 27.4701 5.57422 27.2695 5.68359 27.1055C5.8112 26.9414 5.86589 26.7135 5.84766 26.4219C6.04818 25.8385 6.23047 25.2734 6.39453 24.7266C6.55859 24.1797 6.66797 23.6146 6.72266 23.0312C6.83203 22.8672 6.94141 22.7578 7.05078 22.7031C7.19661 21.6641 7.21484 20.5977 7.10547 19.5039C6.99609 18.4102 6.8138 17.3984 6.55859 16.4688C6.57682 16.2682 6.60417 16.1224 6.64062 16.0312C6.67708 15.9219 6.67708 15.8307 6.64062 15.7578C6.60417 15.5938 6.65885 15.5117 6.80469 15.5117C6.95052 15.5117 7.09635 15.5117 7.24219 15.5117C7.24219 15.1836 7.17839 14.8646 7.05078 14.5547C6.94141 14.2266 6.83203 13.8529 6.72266 13.4336C6.86849 13.1055 6.96875 12.7865 7.02344 12.4766C7.07812 12.1667 7.17839 11.8841 7.32422 11.6289C7.90755 11.8112 8.48177 12.0208 9.04688 12.2578C9.61198 12.4948 10.168 12.7318 10.7148 12.9688C11.2617 13.1875 11.7995 13.4062 12.3281 13.625C12.8568 13.8255 13.3763 13.9896 13.8867 14.1172C14.6706 14.6823 15.4727 15.2474 16.293 15.8125C17.1315 16.3594 17.888 16.9701 18.5625 17.6445C19.2552 18.3008 19.8294 19.0573 20.2852 19.9141C20.7409 20.7708 21.0052 21.7826 21.0781 22.9492C21.0417 23.0586 21.0143 23.1497 20.9961 23.2227C20.9779 23.2956 20.9596 23.3685 20.9414 23.4414C20.9232 23.5143 20.9141 23.5964 20.9141 23.6875C20.9141 23.7786 20.9141 23.9062 20.9141 24.0703C20.2578 25.2188 19.4284 26.1849 18.4258 26.9688C17.4232 27.7526 16.3294 28.4453 15.1445 29.0469C13.9596 29.6484 12.7201 30.2044 11.4258 30.7148C10.1497 31.207 8.90104 31.7357 7.67969 32.3008ZM10.3594 16.7969C10.1953 16.7969 10.0768 16.8333 10.0039 16.9062C10.2227 17.7266 10.3867 18.5013 10.4961 19.2305C10.6055 19.9596 10.6602 20.6888 10.6602 21.418C10.6784 22.1471 10.6419 22.8945 10.5508 23.6602C10.4596 24.4258 10.332 25.2552 10.168 26.1484C10.4049 26.1302 10.6146 26.0846 10.7969 26.0117C10.9792 25.9388 11.1615 25.8568 11.3438 25.7656C11.5443 25.6745 11.7448 25.5924 11.9453 25.5195C12.1641 25.4466 12.4102 25.401 12.6836 25.3828C12.7565 25.237 12.8477 25.1276 12.957 25.0547C13.0846 24.9635 13.194 24.8724 13.2852 24.7812C13.7409 24.599 14.1966 24.4076 14.6523 24.207C15.1081 24.0065 15.5273 23.7786 15.9102 23.5234C16.293 23.2682 16.6393 22.9766 16.9492 22.6484C17.2591 22.3203 17.5143 21.9284 17.7148 21.4727C17.569 21.1992 17.3867 20.9714 17.168 20.7891C16.9674 20.5885 16.7487 20.3971 16.5117 20.2148C16.293 20.0143 16.0742 19.8138 15.8555 19.6133C15.6549 19.3945 15.4909 19.1484 15.3633 18.875C15.0716 18.8385 14.8164 18.7656 14.5977 18.6562C14.3789 18.5286 14.1693 18.4102 13.9688 18.3008C13.7682 18.1732 13.5495 18.0547 13.3125 17.9453C13.0938 17.8359 12.8294 17.7721 12.5195 17.7539C12.0456 17.4987 11.6172 17.3255 11.2344 17.2344C10.8516 17.125 10.5599 16.9792 10.3594 16.7969ZM20.8375 32.3281C20.5823 32.1641 20.3818 31.9544 20.2359 31.6992C20.0719 31.444 19.9443 31.1706 19.8531 30.8789C19.7437 30.5872 19.6617 30.2865 19.607 29.9766C19.5341 29.6484 19.4612 29.3385 19.3883 29.0469C19.3883 28.7917 19.443 28.6094 19.5523 28.5C19.6617 28.3724 19.7802 28.2539 19.9078 28.1445C20.3453 28.1263 20.7372 28.0898 21.0836 28.0352C21.4299 27.9805 21.7672 27.9258 22.0953 27.8711C22.4234 27.8164 22.7516 27.7708 23.0797 27.7344C23.4078 27.6797 23.7633 27.6523 24.1461 27.6523C24.4195 27.0872 24.6747 26.5495 24.9117 26.0391C25.1487 25.5104 25.3766 25.0091 25.5953 24.5352C25.7047 24.0794 25.8414 23.6602 26.0055 23.2773C26.1878 22.8763 26.3609 22.5026 26.525 22.1562C26.6891 21.7917 26.8349 21.4362 26.9625 21.0898C27.0901 20.7253 27.1721 20.3424 27.2086 19.9414C27.4273 19.3034 27.6187 18.7201 27.7828 18.1914C27.9651 17.6445 28.1018 16.9974 28.193 16.25C27.5003 16.3594 26.9443 16.4688 26.525 16.5781C26.1057 16.6693 25.8049 16.7604 25.6227 16.8516C25.2581 16.8333 24.9664 16.7604 24.7477 16.6328C24.5471 16.5052 24.3831 16.3503 24.2555 16.168C24.1279 15.9857 24.0185 15.776 23.9273 15.5391C23.8362 15.3021 23.7268 15.056 23.5992 14.8008C23.6721 14.6367 23.6904 14.3997 23.6539 14.0898C23.6174 13.7617 23.5081 13.5247 23.3258 13.3789C23.4716 13.3424 23.581 13.224 23.6539 13.0234C23.7268 12.8047 23.7359 12.6406 23.6812 12.5312C23.9911 12.4401 24.3193 12.3854 24.6656 12.3672C25.012 12.3307 25.3492 12.3034 25.6773 12.2852C26.0237 12.2487 26.3518 12.2122 26.6617 12.1758C26.9716 12.1211 27.2359 12.0208 27.4547 11.875C28.4026 11.8385 29.387 11.8021 30.4078 11.7656C31.4469 11.7292 32.4039 11.6836 33.2789 11.6289C33.607 11.7383 33.9807 11.793 34.4 11.793C34.8375 11.793 35.2659 11.8203 35.6852 11.875C36.1227 11.9297 36.5055 12.0482 36.8336 12.2305C37.1799 12.4128 37.4169 12.7318 37.5445 13.1875C37.818 13.224 38.0185 13.2969 38.1461 13.4062C38.2919 13.5156 38.3831 13.6523 38.4195 13.8164C38.456 13.9622 38.4651 14.1354 38.4469 14.3359C38.4469 14.5182 38.4469 14.7005 38.4469 14.8828C38.1552 15.1016 37.7815 15.2839 37.3258 15.4297C36.8883 15.5573 36.4052 15.6667 35.8766 15.7578C35.3479 15.8307 34.7919 15.8854 34.2086 15.9219C33.6435 15.9401 33.0875 15.9583 32.5406 15.9766C32.4495 16.5781 32.2854 17.2891 32.0484 18.1094C31.8297 18.9115 31.6018 19.7044 31.3648 20.4883C31.1279 21.2539 30.9182 21.9466 30.7359 22.5664C30.5719 23.168 30.499 23.5599 30.5172 23.7422C30.3349 24.1615 30.1799 24.5169 30.0523 24.8086C29.943 25.1003 29.8336 25.3737 29.7242 25.6289C29.6331 25.8841 29.5328 26.1393 29.4234 26.3945C29.3323 26.6315 29.2138 26.9049 29.068 27.2148H30.9273C30.9638 27.4154 31.0458 27.5521 31.1734 27.625C31.301 27.6979 31.4378 27.7617 31.5836 27.8164C31.7294 27.8711 31.857 27.944 31.9664 28.0352C32.094 28.1081 32.1578 28.2357 32.1578 28.418C32.5042 28.5091 32.7229 28.6458 32.8141 28.8281C32.9052 29.0104 32.9234 29.2109 32.8687 29.4297C32.8323 29.6302 32.7411 29.8398 32.5953 30.0586C32.4677 30.2773 32.3401 30.4688 32.2125 30.6328C32.0484 30.5964 31.8935 30.6419 31.7477 30.7695C31.6018 30.8789 31.4651 31.0065 31.3375 31.1523C30.8089 31.0794 30.2893 31.0703 29.7789 31.125C29.2685 31.1797 28.7945 31.2253 28.357 31.2617C28.2659 31.2799 28.2294 31.3346 28.2477 31.4258C28.2659 31.4987 28.2477 31.5534 28.193 31.5898C27.6279 31.4076 27.0445 31.3346 26.443 31.3711C25.8596 31.4076 25.2581 31.4987 24.6383 31.6445C24.0367 31.7721 23.4169 31.9089 22.7789 32.0547C22.1409 32.2188 21.4937 32.3099 20.8375 32.3281ZM37.7414 31.0703C37.5956 30.9245 37.4862 30.7513 37.4133 30.5508C37.3586 30.3503 37.2128 30.1862 36.9758 30.0586C36.9393 29.7852 36.8846 29.4753 36.8117 29.1289C36.757 28.7643 36.6932 28.3997 36.6203 28.0352C36.5656 27.6523 36.5201 27.2786 36.4836 26.9141C36.4654 26.5312 36.4836 26.1849 36.5383 25.875C36.5747 25.7109 36.6294 25.556 36.7023 25.4102C36.7935 25.2643 36.8755 25.1276 36.9484 25C37.0396 24.8542 37.1034 24.7083 37.1398 24.5625C37.1945 24.4167 37.2036 24.2708 37.1672 24.125C37.2766 24.1068 37.3404 24.0521 37.3586 23.9609C37.3951 23.8516 37.4862 23.8151 37.632 23.8516C37.7596 23.4505 37.8964 23.0768 38.0422 22.7305C38.188 22.3841 38.343 22.0469 38.507 21.7188C38.6711 21.3906 38.8352 21.0625 38.9992 20.7344C39.1815 20.388 39.3456 20.0052 39.4914 19.5859C39.1815 19.2943 38.9536 18.9844 38.8078 18.6562C38.6802 18.3099 38.5799 17.9635 38.507 17.6172C38.4341 17.2708 38.3794 16.9245 38.343 16.5781C38.3065 16.2135 38.2336 15.849 38.1242 15.4844C38.343 15.1562 38.6073 14.8919 38.9172 14.6914C39.2271 14.4727 39.5643 14.2995 39.9289 14.1719C40.3117 14.026 40.7219 13.9167 41.1594 13.8438C41.5969 13.7526 42.0617 13.6523 42.5539 13.543C43.4289 13.2695 44.2128 13.0599 44.9055 12.9141C45.5982 12.75 46.2727 12.6224 46.9289 12.5312C47.5852 12.4219 48.2687 12.3307 48.9797 12.2578C49.6906 12.1667 50.5109 12.0391 51.4406 11.875C51.4589 11.9297 51.4862 11.957 51.5227 11.957C51.5773 11.957 51.6411 11.957 51.7141 11.957C51.7687 12.0846 51.869 12.1484 52.0148 12.1484C52.0148 12.0938 52.0057 12.0482 51.9875 12.0117C51.9875 11.957 51.9875 11.9115 51.9875 11.875C52.024 11.875 52.0695 11.8841 52.1242 11.9023C52.1971 11.9206 52.2518 11.9388 52.2883 11.957C52.343 11.9753 52.3885 11.9753 52.425 11.957C52.4615 11.9206 52.4706 11.8568 52.4523 11.7656C52.6711 12.1484 52.9536 12.4674 53.3 12.7227C53.6464 12.9596 54.0292 13.1693 54.4484 13.3516C54.4667 13.5156 54.4667 13.6341 54.4484 13.707C54.4484 13.7799 54.4393 13.8529 54.4211 13.9258C54.4029 13.9805 54.3937 14.0534 54.3937 14.1445C54.3937 14.2174 54.412 14.3268 54.4484 14.4727C54.1568 14.9648 53.8195 15.3477 53.4367 15.6211C53.0721 15.8945 52.6802 16.1042 52.2609 16.25C51.8417 16.3958 51.3951 16.5052 50.9211 16.5781C50.4654 16.651 49.9914 16.7331 49.4992 16.8242C49.0253 16.8971 48.5422 17.0065 48.05 17.1523C47.5578 17.2982 47.0747 17.5169 46.6008 17.8086C46.4549 17.7539 46.3182 17.7357 46.1906 17.7539C46.0812 17.7539 45.9628 17.7721 45.8352 17.8086C45.7076 17.8451 45.5617 17.8815 45.3977 17.918C45.2518 17.9544 45.0695 17.9544 44.8508 17.918C44.7049 18.0456 44.5318 18.1367 44.3312 18.1914C44.149 18.2461 43.9576 18.3008 43.757 18.3555C43.8482 18.556 43.8846 18.7565 43.8664 18.957C43.8664 19.1576 43.8937 19.3307 43.9484 19.4766C44.7141 19.5495 45.5617 19.5495 46.4914 19.4766C47.4211 19.3854 48.3326 19.3216 49.2258 19.2852C49.244 19.3763 49.2349 19.4401 49.1984 19.4766C49.162 19.513 49.1437 19.5768 49.1437 19.668C49.3078 19.7773 49.4628 19.9141 49.6086 20.0781C49.7544 20.2422 49.9003 20.4062 50.0461 20.5703C50.2102 20.7161 50.3742 20.8438 50.5383 20.9531C50.7023 21.0443 50.8937 21.0807 51.1125 21.0625C51.2036 21.2448 51.2674 21.4362 51.3039 21.6367C51.3404 21.8372 51.313 22.0469 51.2219 22.2656C50.8573 22.5026 50.5018 22.7487 50.1555 23.0039C49.8091 23.2409 49.4445 23.4596 49.0617 23.6602C48.6971 23.8607 48.2961 24.0247 47.8586 24.1523C47.4211 24.2799 46.9471 24.3346 46.4367 24.3164C46.3456 24.3164 46.2635 24.3164 46.1906 24.3164C46.1359 24.3164 46.063 24.2799 45.9719 24.207C45.7896 24.2982 45.5435 24.3346 45.2336 24.3164C44.9419 24.2799 44.6958 24.3073 44.4953 24.3984C44.2401 24.3073 43.9393 24.2617 43.593 24.2617C43.2648 24.2617 42.9732 24.2161 42.718 24.125C42.3898 24.599 42.0799 25.1003 41.7883 25.6289C41.4966 26.1393 41.2414 26.6862 41.0227 27.2695C41.7701 27.3789 42.3898 27.4245 42.882 27.4062C43.3742 27.388 43.8391 27.3516 44.2766 27.2969C44.7141 27.2422 45.1607 27.1875 45.6164 27.1328C46.0904 27.0781 46.6646 27.0599 47.3391 27.0781C47.7948 26.8594 48.3143 26.7135 48.8977 26.6406C49.4992 26.5495 50.0552 26.4219 50.5656 26.2578C50.7479 26.3125 50.9029 26.4219 51.0305 26.5859C51.1581 26.7318 51.2766 26.8867 51.3859 27.0508C51.5135 27.1966 51.6411 27.3242 51.7687 27.4336C51.8964 27.543 52.0604 27.5794 52.2609 27.543C52.3521 27.6341 52.4068 27.7435 52.425 27.8711C52.4615 27.9987 52.4888 28.1172 52.507 28.2266C52.5435 28.3359 52.5891 28.4271 52.6437 28.5C52.6984 28.5547 52.7987 28.5729 52.9445 28.5547C52.5982 29.2656 52.2062 29.8125 51.7687 30.1953C51.3495 30.5781 50.8664 30.8789 50.3195 31.0977C49.7909 31.2982 49.1893 31.4531 48.5148 31.5625C47.8586 31.6536 47.1203 31.7721 46.3 31.918C46.0995 31.9544 45.9263 31.9544 45.7805 31.918C45.6529 31.8633 45.5161 31.8359 45.3703 31.8359C44.8599 31.9271 44.2492 32.0182 43.5383 32.1094C42.8456 32.2005 42.1437 32.237 41.4328 32.2188C40.7219 32.2005 40.0383 32.1094 39.382 31.9453C38.7258 31.7812 38.1789 31.4896 37.7414 31.0703ZM55.7664 16.5781C55.7482 16.4323 55.7117 16.3047 55.657 16.1953C55.6206 16.0677 55.575 15.931 55.5203 15.7852C55.4292 15.5664 55.3471 15.3294 55.2742 15.0742C55.2013 14.819 55.1648 14.5182 55.1648 14.1719C55.2013 13.9896 55.2469 13.862 55.3016 13.7891C55.3563 13.6979 55.4109 13.625 55.4656 13.5703L55.575 13.0781H55.9852C56.131 13.0964 56.2768 13.1055 56.4227 13.1055C56.5867 13.1055 56.7417 13.1055 56.8875 13.1055C57.5802 13.1055 58.2911 13.0781 59.0203 13.0234C59.7495 12.9688 60.4969 12.9049 61.2625 12.832C62.101 12.7227 63.0034 12.6406 63.9695 12.5859C64.0607 12.3854 64.1154 12.2578 64.1336 12.2031C64.1701 12.1484 64.2065 12.0846 64.243 12.0117L64.5438 11.8477C64.963 11.8294 65.2547 11.8841 65.4188 12.0117C65.5828 12.1211 65.7104 12.2305 65.8016 12.3398C66.2755 12.3034 66.7586 12.2578 67.2508 12.2031C67.743 12.1302 68.2534 12.0573 68.782 11.9844C69.5112 11.8932 70.2495 11.8021 70.9969 11.7109C71.7443 11.6198 72.4734 11.5742 73.1844 11.5742C73.4943 11.5742 73.7859 11.5833 74.0594 11.6016C74.3328 11.6198 74.5971 11.6471 74.8523 11.6836L75.1805 11.9297C75.2534 12.0573 75.3445 12.1758 75.4539 12.2852C75.5633 12.3945 75.6909 12.5039 75.8367 12.6133C76.1102 12.832 76.3745 13.1055 76.6297 13.4336C76.9031 13.7617 77.0034 14.2448 76.9305 14.8828L76.7938 15.1562C76.7208 15.2292 76.6297 15.3021 76.5203 15.375L76.2469 15.7305H75.9461C75.7638 15.7305 75.6271 15.7487 75.5359 15.7852C75.4448 15.8034 75.3354 15.8398 75.2078 15.8945C75.1349 15.931 75.0529 15.9674 74.9617 16.0039C74.8706 16.0221 74.7703 16.0495 74.6609 16.0859C74.4604 16.0677 74.3055 16.0586 74.1961 16.0586C74.0867 16.0586 73.9591 16.0586 73.8133 16.0586C73.2664 16.0586 72.674 16.0951 72.0359 16.168C71.3979 16.2409 70.7781 16.3229 70.1766 16.4141C69.7391 16.4688 69.3198 16.5234 68.9188 16.5781C68.5177 16.6146 68.1531 16.651 67.825 16.6875C67.6427 17.1615 67.4786 17.5807 67.3328 17.9453C67.187 18.3099 67.032 18.6745 66.868 19.0391C66.7039 19.4036 66.549 19.7773 66.4031 20.1602C66.2573 20.5247 66.1206 20.9349 65.993 21.3906C65.7742 21.7188 65.5919 22.0378 65.4461 22.3477C65.3003 22.6393 65.1818 22.9766 65.0906 23.3594C64.8172 23.6693 64.6167 24.0065 64.4891 24.3711C64.3797 24.7357 64.2794 25.0456 64.1883 25.3008L64.0789 25.7109C63.9513 25.8385 63.8693 25.9388 63.8328 26.0117C63.8146 26.0846 63.769 26.1667 63.6961 26.2578C63.6414 26.4948 63.5685 26.7227 63.4773 26.9414C63.4409 27.0326 63.4044 27.1328 63.368 27.2422C63.3315 27.3333 63.3224 27.4062 63.3406 27.4609C63.3042 27.6615 63.2495 27.8164 63.1766 27.9258C63.1766 28.0352 63.1674 28.1445 63.1492 28.2539C63.131 28.3633 63.1128 28.4727 63.0945 28.582C63.0581 28.7096 63.0307 28.8281 63.0125 28.9375C62.9943 29.0286 63.0034 29.1198 63.0398 29.2109C63.0945 29.2839 63.1492 29.3568 63.2039 29.4297C63.2586 29.5026 63.3042 29.5938 63.3406 29.7031C63.3771 29.7396 63.4227 29.7669 63.4773 29.7852C63.532 29.8034 63.5776 29.8307 63.6141 29.8672C63.7599 29.9948 63.8966 30.0677 64.0242 30.0859L64.2977 30.4141C64.407 31.0703 64.3068 31.5807 63.9969 31.9453C63.6688 32.3646 63.1219 32.5742 62.3563 32.5742L61.9734 32.5469C61.8458 32.4193 61.7729 32.3372 61.7547 32.3008C61.5906 32.2279 61.4539 32.1641 61.3445 32.1094C61.2352 32.0729 61.1349 31.9909 61.0438 31.8633C61.0073 31.8268 60.9617 31.8086 60.907 31.8086C60.8523 31.7904 60.8068 31.763 60.7703 31.7266C60.588 31.6719 60.4422 31.6081 60.3328 31.5352L60.032 31.3711C60.0503 31.1888 60.0594 31.0612 60.0594 30.9883C59.9135 30.7878 59.7951 30.569 59.7039 30.332C59.631 30.0951 59.5672 29.849 59.5125 29.5938C59.4578 29.3932 59.4031 29.2109 59.3484 29.0469C59.312 28.8828 59.2482 28.737 59.157 28.6094C59.1206 27.3333 59.2391 26.2669 59.5125 25.4102C59.7859 24.5352 60.0867 23.6875 60.4148 22.8672C60.5971 22.4297 60.7703 21.9831 60.9344 21.5273C61.0984 21.0716 61.2443 20.6068 61.3719 20.1328L61.6727 19.832C61.8003 19.7227 61.8823 19.6589 61.9188 19.6406C61.9188 19.4036 61.9643 19.1758 62.0555 18.957C62.1466 18.7201 62.2469 18.4831 62.3563 18.2461C62.4292 18.1003 62.493 17.9544 62.5477 17.8086C62.6206 17.6628 62.6661 17.5352 62.6844 17.4258C62.5568 17.4258 62.4383 17.4349 62.3289 17.4531C62.2378 17.4531 62.1375 17.4622 62.0281 17.4805C61.7911 17.5352 61.5633 17.5625 61.3445 17.5625C61.1805 17.5625 61.062 17.5534 60.9891 17.5352C60.8432 17.6081 60.7065 17.6536 60.5789 17.6719C60.4513 17.6719 60.3237 17.6719 60.1961 17.6719H59.868H59.5398C59.3211 17.6719 59.1479 17.6992 59.0203 17.7539C58.7651 17.7539 58.601 17.7539 58.5281 17.7539C58.4552 17.7539 58.3732 17.7539 58.282 17.7539H57.9539H57.6258C57.4799 17.7539 57.3159 17.7448 57.1336 17.7266C56.9513 17.6901 56.7599 17.6172 56.5594 17.5078L56.368 17.2891C56.2586 17.0885 56.1583 16.9792 56.0672 16.9609L55.7664 16.8789V16.5781Z" fill="#1A6222"/>
<path d="M21.6797 61.3008C21.151 61.1732 20.7409 60.9635 20.4492 60.6719C20.1758 60.362 19.9661 60.0065 19.8203 59.6055C19.6927 59.1862 19.6016 58.7305 19.5469 58.2383C19.5104 57.7461 19.4648 57.2357 19.4102 56.707C19.4831 56.4701 19.5742 56.2695 19.6836 56.1055C19.8112 55.9414 19.8659 55.7135 19.8477 55.4219C20.0482 54.8385 20.2305 54.2734 20.3945 53.7266C20.5586 53.1797 20.668 52.6146 20.7227 52.0312C20.832 51.8672 20.9414 51.7578 21.0508 51.7031C21.1966 50.6641 21.2148 49.5977 21.1055 48.5039C20.9961 47.4102 20.8138 46.3984 20.5586 45.4688C20.5768 45.2682 20.6042 45.1224 20.6406 45.0312C20.6771 44.9219 20.6771 44.8307 20.6406 44.7578C20.6042 44.5938 20.6589 44.5117 20.8047 44.5117C20.9505 44.5117 21.0964 44.5117 21.2422 44.5117C21.2422 44.1836 21.1784 43.8646 21.0508 43.5547C20.9414 43.2266 20.832 42.8529 20.7227 42.4336C20.8685 42.1055 20.9688 41.7865 21.0234 41.4766C21.0781 41.1667 21.1784 40.8841 21.3242 40.6289C21.9076 40.8112 22.4818 41.0208 23.0469 41.2578C23.612 41.4948 24.168 41.7318 24.7148 41.9688C25.2617 42.1875 25.7995 42.4062 26.3281 42.625C26.8568 42.8255 27.3763 42.9896 27.8867 43.1172C28.6706 43.6823 29.4727 44.2474 30.293 44.8125C31.1315 45.3594 31.888 45.9701 32.5625 46.6445C33.2552 47.3008 33.8294 48.0573 34.2852 48.9141C34.7409 49.7708 35.0052 50.7826 35.0781 51.9492C35.0417 52.0586 35.0143 52.1497 34.9961 52.2227C34.9779 52.2956 34.9596 52.3685 34.9414 52.4414C34.9232 52.5143 34.9141 52.5964 34.9141 52.6875C34.9141 52.7786 34.9141 52.9062 34.9141 53.0703C34.2578 54.2188 33.4284 55.1849 32.4258 55.9688C31.4232 56.7526 30.3294 57.4453 29.1445 58.0469C27.9596 58.6484 26.7201 59.2044 25.4258 59.7148C24.1497 60.207 22.901 60.7357 21.6797 61.3008ZM24.3594 45.7969C24.1953 45.7969 24.0768 45.8333 24.0039 45.9062C24.2227 46.7266 24.3867 47.5013 24.4961 48.2305C24.6055 48.9596 24.6602 49.6888 24.6602 50.418C24.6784 51.1471 24.6419 51.8945 24.5508 52.6602C24.4596 53.4258 24.332 54.2552 24.168 55.1484C24.4049 55.1302 24.6146 55.0846 24.7969 55.0117C24.9792 54.9388 25.1615 54.8568 25.3438 54.7656C25.5443 54.6745 25.7448 54.5924 25.9453 54.5195C26.1641 54.4466 26.4102 54.401 26.6836 54.3828C26.7565 54.237 26.8477 54.1276 26.957 54.0547C27.0846 53.9635 27.194 53.8724 27.2852 53.7812C27.7409 53.599 28.1966 53.4076 28.6523 53.207C29.1081 53.0065 29.5273 52.7786 29.9102 52.5234C30.293 52.2682 30.6393 51.9766 30.9492 51.6484C31.2591 51.3203 31.5143 50.9284 31.7148 50.4727C31.569 50.1992 31.3867 49.9714 31.168 49.7891C30.9674 49.5885 30.7487 49.3971 30.5117 49.2148C30.293 49.0143 30.0742 48.8138 29.8555 48.6133C29.6549 48.3945 29.4909 48.1484 29.3633 47.875C29.0716 47.8385 28.8164 47.7656 28.5977 47.6562C28.3789 47.5286 28.1693 47.4102 27.9688 47.3008C27.7682 47.1732 27.5495 47.0547 27.3125 46.9453C27.0938 46.8359 26.8294 46.7721 26.5195 46.7539C26.0456 46.4987 25.6172 46.3255 25.2344 46.2344C24.8516 46.125 24.5599 45.9792 24.3594 45.7969ZM34.8375 61.3281C34.5823 61.1641 34.3818 60.9544 34.2359 60.6992C34.0719 60.444 33.9443 60.1706 33.8531 59.8789C33.7437 59.5872 33.6617 59.2865 33.607 58.9766C33.5341 58.6484 33.4612 58.3385 33.3883 58.0469C33.3883 57.7917 33.443 57.6094 33.5523 57.5C33.6617 57.3724 33.7802 57.2539 33.9078 57.1445C34.3453 57.1263 34.7372 57.0898 35.0836 57.0352C35.4299 56.9805 35.7672 56.9258 36.0953 56.8711C36.4234 56.8164 36.7516 56.7708 37.0797 56.7344C37.4078 56.6797 37.7633 56.6523 38.1461 56.6523C38.4195 56.0872 38.6747 55.5495 38.9117 55.0391C39.1487 54.5104 39.3766 54.0091 39.5953 53.5352C39.7047 53.0794 39.8414 52.6602 40.0055 52.2773C40.1878 51.8763 40.3609 51.5026 40.525 51.1562C40.6891 50.7917 40.8349 50.4362 40.9625 50.0898C41.0901 49.7253 41.1721 49.3424 41.2086 48.9414C41.4273 48.3034 41.6187 47.7201 41.7828 47.1914C41.9651 46.6445 42.1018 45.9974 42.193 45.25C41.5003 45.3594 40.9443 45.4688 40.525 45.5781C40.1057 45.6693 39.8049 45.7604 39.6227 45.8516C39.2581 45.8333 38.9664 45.7604 38.7477 45.6328C38.5471 45.5052 38.3831 45.3503 38.2555 45.168C38.1279 44.9857 38.0185 44.776 37.9273 44.5391C37.8362 44.3021 37.7268 44.056 37.5992 43.8008C37.6721 43.6367 37.6904 43.3997 37.6539 43.0898C37.6174 42.7617 37.5081 42.5247 37.3258 42.3789C37.4716 42.3424 37.581 42.224 37.6539 42.0234C37.7268 41.8047 37.7359 41.6406 37.6812 41.5312C37.9911 41.4401 38.3193 41.3854 38.6656 41.3672C39.012 41.3307 39.3492 41.3034 39.6773 41.2852C40.0237 41.2487 40.3518 41.2122 40.6617 41.1758C40.9716 41.1211 41.2359 41.0208 41.4547 40.875C42.4026 40.8385 43.387 40.8021 44.4078 40.7656C45.4469 40.7292 46.4039 40.6836 47.2789 40.6289C47.607 40.7383 47.9807 40.793 48.4 40.793C48.8375 40.793 49.2659 40.8203 49.6852 40.875C50.1227 40.9297 50.5055 41.0482 50.8336 41.2305C51.1799 41.4128 51.4169 41.7318 51.5445 42.1875C51.818 42.224 52.0185 42.2969 52.1461 42.4062C52.2919 42.5156 52.3831 42.6523 52.4195 42.8164C52.456 42.9622 52.4651 43.1354 52.4469 43.3359C52.4469 43.5182 52.4469 43.7005 52.4469 43.8828C52.1552 44.1016 51.7815 44.2839 51.3258 44.4297C50.8883 44.5573 50.4052 44.6667 49.8766 44.7578C49.3479 44.8307 48.7919 44.8854 48.2086 44.9219C47.6435 44.9401 47.0875 44.9583 46.5406 44.9766C46.4495 45.5781 46.2854 46.2891 46.0484 47.1094C45.8297 47.9115 45.6018 48.7044 45.3648 49.4883C45.1279 50.2539 44.9182 50.9466 44.7359 51.5664C44.5719 52.168 44.499 52.5599 44.5172 52.7422C44.3349 53.1615 44.1799 53.5169 44.0523 53.8086C43.943 54.1003 43.8336 54.3737 43.7242 54.6289C43.6331 54.8841 43.5328 55.1393 43.4234 55.3945C43.3323 55.6315 43.2138 55.9049 43.068 56.2148H44.9273C44.9638 56.4154 45.0458 56.5521 45.1734 56.625C45.301 56.6979 45.4378 56.7617 45.5836 56.8164C45.7294 56.8711 45.857 56.944 45.9664 57.0352C46.094 57.1081 46.1578 57.2357 46.1578 57.418C46.5042 57.5091 46.7229 57.6458 46.8141 57.8281C46.9052 58.0104 46.9234 58.2109 46.8687 58.4297C46.8323 58.6302 46.7411 58.8398 46.5953 59.0586C46.4677 59.2773 46.3401 59.4688 46.2125 59.6328C46.0484 59.5964 45.8935 59.6419 45.7477 59.7695C45.6018 59.8789 45.4651 60.0065 45.3375 60.1523C44.8089 60.0794 44.2893 60.0703 43.7789 60.125C43.2685 60.1797 42.7945 60.2253 42.357 60.2617C42.2659 60.2799 42.2294 60.3346 42.2477 60.4258C42.2659 60.4987 42.2477 60.5534 42.193 60.5898C41.6279 60.4076 41.0445 60.3346 40.443 60.3711C39.8596 60.4076 39.2581 60.4987 38.6383 60.6445C38.0367 60.7721 37.4169 60.9089 36.7789 61.0547C36.1409 61.2188 35.4937 61.3099 34.8375 61.3281ZM49.4992 58.4023L49.8547 58.1289L49.882 57.5547C50.3378 56.4427 50.8026 55.3763 51.2766 54.3555C51.7687 53.3346 52.2792 52.2865 52.8078 51.2109C52.9719 50.8646 53.1359 50.5182 53.3 50.1719C53.4823 49.8255 53.6555 49.4701 53.8195 49.1055C53.8013 49.0326 53.7922 48.9596 53.7922 48.8867C53.7922 48.7956 53.8104 48.6953 53.8469 48.5859C54.1021 48.2214 54.3026 47.8932 54.4484 47.6016C54.6125 47.3099 54.7674 47.0091 54.9133 46.6992C55.0773 46.3346 55.2505 45.9701 55.4328 45.6055C55.6333 45.2409 55.8794 44.8854 56.1711 44.5391L56.3625 44.2656L56.6633 44.293C56.7362 44.2565 56.8091 44.2292 56.882 44.2109C56.9732 44.1745 57.0826 44.1562 57.2102 44.1562L57.7023 44.2383C58.3039 43.9648 58.8326 43.5729 59.2883 43.0625C59.7622 42.5339 60.2362 41.9049 60.7102 41.1758L61.0383 40.7109L61.4758 40.9844C61.5669 41.0391 61.7128 41.0938 61.9133 41.1484C62.1138 41.2031 62.3234 41.2669 62.5422 41.3398C62.925 41.431 63.2987 41.5404 63.6633 41.668C64.0279 41.7773 64.3104 41.9323 64.5109 42.1328L64.6477 42.3789C64.6841 42.5794 64.7115 42.7617 64.7297 42.9258C64.7661 43.0898 64.8026 43.2539 64.8391 43.418C64.912 43.8008 64.9758 44.1836 65.0305 44.5664C65.0852 44.931 65.1216 45.3411 65.1398 45.7969C65.231 46.1615 65.313 46.5352 65.3859 46.918C65.4771 47.2826 65.5591 47.6471 65.632 48.0117C65.7232 48.5404 65.8234 49.0508 65.9328 49.543C66.0422 50.0169 66.188 50.4727 66.3703 50.9102C66.5526 50.9102 66.662 50.9193 66.6984 50.9375C66.9172 50.8464 67.1724 50.7917 67.4641 50.7734L67.8195 50.7461L67.9289 51.0742C67.9654 51.1289 68.0109 51.1836 68.0656 51.2383C68.1203 51.293 68.1841 51.3477 68.257 51.4023C68.5487 51.4206 68.7583 51.4844 68.8859 51.5938C69.0318 51.6849 69.1503 51.776 69.2414 51.8672C69.2779 51.9036 69.3234 51.9492 69.3781 52.0039C69.4328 52.0404 69.4784 52.0677 69.5148 52.0859L70.007 52.2773L69.7336 52.7969C69.5331 53.1797 69.2232 53.5534 68.8039 53.918C68.4029 54.2826 67.9471 54.5833 67.4367 54.8203C67.4732 54.9479 67.4914 55.0664 67.4914 55.1758C67.5096 55.2852 67.537 55.4128 67.5734 55.5586C67.6464 55.9232 67.701 56.306 67.7375 56.707C67.7922 57.0898 67.7922 57.4909 67.7375 57.9102C67.5552 58.3841 67.3365 58.8125 67.0812 59.1953C66.8443 59.5599 66.5526 59.8971 66.2062 60.207C65.8781 60.4987 65.5044 60.7448 65.0852 60.9453C64.6659 61.1276 64.2284 61.2279 63.7727 61.2461C63.5174 61.1914 63.326 61.1276 63.1984 61.0547C63.0891 60.9818 62.9888 60.9089 62.8977 60.8359C62.7518 60.7266 62.6333 60.6536 62.5422 60.6172L62.1867 60.4531L62.2961 60.043C62.3508 59.8971 62.3417 59.7695 62.2687 59.6602C62.2141 59.5508 62.0865 59.4049 61.8859 59.2227C61.813 59.168 61.7492 59.1133 61.6945 59.0586C61.6398 58.9857 61.576 58.9128 61.5031 58.8398L60.9562 58.2109L61.8586 57.9648C62.4055 57.819 62.7701 57.6367 62.9523 57.418C63.1346 57.181 63.2076 56.7708 63.1711 56.1875C62.7154 56.0964 62.3417 56.0872 62.05 56.1602C61.7583 56.2148 61.4667 56.2786 61.175 56.3516C60.7557 56.4609 60.3456 56.5612 59.9445 56.6523C59.5435 56.7253 59.106 56.7617 58.632 56.7617C58.3221 56.7617 57.994 56.7344 57.6477 56.6797L57.3469 56.6523L57.2648 56.3516C57.2648 56.3151 57.2375 56.2786 57.1828 56.2422C57.1464 56.1875 57.1099 56.1419 57.0734 56.1055C56.9823 55.9961 56.8729 55.8503 56.7453 55.668C56.6177 55.4857 56.5904 55.2578 56.6633 54.9844C56.5357 54.7839 56.4628 54.5742 56.4445 54.3555C56.3716 54.5013 56.3078 54.6471 56.2531 54.793C56.2167 54.9206 56.1802 55.0482 56.1437 55.1758L56.0344 55.5312L55.6789 55.5859C55.6424 55.6224 55.606 55.6771 55.5695 55.75C55.5513 55.8229 55.5513 55.8776 55.5695 55.9141L55.6789 56.2148L55.4055 56.4609C55.369 56.5156 55.3234 56.5612 55.2687 56.5977C55.2141 56.6341 55.1685 56.6706 55.132 56.707C55.0956 56.9076 55.0409 57.099 54.968 57.2812C54.9133 57.4635 54.8495 57.6458 54.7766 57.8281C54.6854 58.1198 54.5943 58.4023 54.5031 58.6758C54.4302 58.9492 54.3937 59.2227 54.3937 59.4961L54.2844 59.8516C54.1932 59.9974 54.0747 60.1068 53.9289 60.1797C53.8013 60.2526 53.6737 60.3164 53.5461 60.3711C53.3638 60.444 53.2362 60.5169 53.1633 60.5898L53.0812 60.9453L52.6711 61C52.4341 61.0547 52.2609 61.0911 52.1516 61.1094C52.0604 61.1276 51.951 61.1367 51.8234 61.1367L51.468 61.1094C51.2492 60.8906 51.0669 60.7266 50.9211 60.6172C50.7935 60.4896 50.6385 60.3802 50.4562 60.2891L50.2922 60.0703C50.2193 59.9245 50.1737 59.7969 50.1555 59.6875C50.1372 59.5599 50.1099 59.4323 50.0734 59.3047C50.037 59.0677 49.9823 58.9036 49.9094 58.8125L49.4992 58.4023ZM58.2219 51.293C57.9667 51.6576 57.7206 52.0404 57.4836 52.4414C57.6112 52.4232 57.7297 52.4141 57.8391 52.4141C57.9667 52.4141 58.0943 52.4049 58.2219 52.3867C58.8599 52.3503 59.4523 52.3047 59.9992 52.25C60.5461 52.1953 61.1385 52.1042 61.7766 51.9766C61.6307 51.3021 61.4667 50.6185 61.2844 49.9258C61.1203 49.2148 60.938 48.5039 60.7375 47.793L60.6008 48.0664C60.1451 48.5586 59.7076 49.0872 59.2883 49.6523C58.869 50.2174 58.5227 50.7552 58.2492 51.2656L58.2219 51.293ZM72.0359 58.6484C71.9448 58.6667 71.8628 58.6029 71.7898 58.457C71.7169 58.293 71.6349 58.138 71.5438 57.9922H71.8445C71.7169 57.5911 71.6805 57.2266 71.7352 56.8984C71.8081 56.5521 71.8901 56.224 71.9813 55.9141C72.0724 55.5859 72.1453 55.276 72.2 54.9844C72.2729 54.6745 72.2456 54.3555 72.118 54.0273C72.2091 54.082 72.2729 54.0638 72.3094 53.9727C72.3641 53.8633 72.4005 53.7357 72.4188 53.5898C72.4552 53.4258 72.4643 53.2617 72.4461 53.0977C72.4461 52.9154 72.437 52.7695 72.4188 52.6602C72.6557 52.0951 72.838 51.5117 72.9656 50.9102C73.1115 50.3086 73.2391 49.7161 73.3484 49.1328C73.4578 48.5312 73.5763 47.957 73.7039 47.4102C73.8497 46.8451 74.032 46.3164 74.2508 45.8242C74.506 45.7878 74.7703 45.8242 75.0438 45.9336C75.3354 46.0247 75.5268 46.1432 75.618 46.2891C76.1831 45.8516 76.6844 45.3229 77.1219 44.7031C77.5594 44.0833 77.9969 43.4818 78.4344 42.8984C78.8901 42.2969 79.4005 41.7682 79.9656 41.3125C80.5307 40.8568 81.2326 40.5833 82.0711 40.4922C82.5086 40.8021 83.0008 41.1393 83.5477 41.5039C84.0945 41.8503 84.5411 42.2878 84.8875 42.8164C85.0333 42.9076 85.1701 43.0078 85.2977 43.1172C85.4435 43.2083 85.5893 43.2995 85.7352 43.3906V43.8008C85.9904 44.0378 86.2 44.3203 86.3641 44.6484C86.5464 44.9583 86.7013 45.2956 86.8289 45.6602C86.9747 46.0065 87.1115 46.362 87.2391 46.7266C87.3667 47.0911 87.5125 47.4284 87.6766 47.7383C87.6401 47.8477 87.6219 47.9479 87.6219 48.0391C87.6401 48.112 87.6583 48.194 87.6766 48.2852C87.713 48.3581 87.7404 48.4492 87.7586 48.5586C87.7768 48.6497 87.7859 48.7682 87.7859 48.9141C87.713 49.8802 87.394 50.6641 86.8289 51.2656C86.282 51.849 85.6076 52.332 84.8055 52.7148C84.0216 53.0794 83.1831 53.3984 82.2898 53.6719C81.3966 53.9271 80.5854 54.2096 79.8563 54.5195C79.8563 54.5924 79.8927 54.6289 79.9656 54.6289C80.0568 54.6289 80.0841 54.6836 80.0477 54.793C80.5945 55.1211 81.0138 55.3854 81.3055 55.5859C81.6154 55.7865 81.8979 55.9596 82.1531 56.1055C82.4266 56.2331 82.7182 56.3424 83.0281 56.4336C83.3563 56.5247 83.8029 56.6341 84.368 56.7617C84.9331 56.8893 85.3706 56.9987 85.6805 57.0898C86.0086 57.1628 86.3003 57.2266 86.5555 57.2812C86.8107 57.3177 87.0841 57.3542 87.3758 57.3906C87.6674 57.4271 88.0594 57.4727 88.5516 57.5273C88.7521 57.7279 88.9161 57.9648 89.0438 58.2383C89.1714 58.5117 89.2625 58.7852 89.3172 59.0586C89.3719 59.332 89.381 59.5964 89.3445 59.8516C89.3263 60.0885 89.2534 60.2799 89.1258 60.4258C89.144 60.4987 89.1896 60.5352 89.2625 60.5352C89.3536 60.5169 89.4448 60.5169 89.5359 60.5352C89.4083 60.6263 89.299 60.7357 89.2078 60.8633C89.1167 60.9909 89.0255 61.1185 88.9344 61.2461C88.8432 61.3737 88.7339 61.4922 88.6063 61.6016C88.4969 61.7109 88.351 61.7747 88.1688 61.793C87.5125 62.0482 86.674 62.0573 85.6531 61.8203C84.6323 61.5833 83.3289 61.1641 81.743 60.5625C80.9591 60.2708 80.3211 60.0065 79.8289 59.7695C79.3367 59.5326 78.9083 59.3047 78.5438 59.0859C78.1792 58.849 77.8419 58.6029 77.532 58.3477C77.2221 58.0742 76.8667 57.7552 76.4656 57.3906C76.4109 57.4089 76.3745 57.4453 76.3563 57.5C76.3563 57.5547 76.3289 57.5911 76.2742 57.6094C76.1831 58.3385 76.0372 58.931 75.8367 59.3867C75.6544 59.8424 75.381 60.3073 75.0164 60.7812C74.7247 60.7266 74.5242 60.7539 74.4148 60.8633C74.3237 60.9727 74.2052 61.0729 74.0594 61.1641C73.8771 61.2005 73.7404 61.1914 73.6492 61.1367C73.5581 61.1003 73.476 61.0547 73.4031 61C73.3302 60.9453 73.2482 60.8906 73.157 60.8359C73.0659 60.7812 72.9201 60.763 72.7195 60.7812C72.6648 60.6172 72.6102 60.4622 72.5555 60.3164C72.5008 60.1523 72.3549 60.0794 72.118 60.0977C72.1727 59.9336 72.1909 59.7969 72.1727 59.6875C72.1544 59.5599 72.1271 59.4505 72.0906 59.3594C72.0542 59.25 72.0177 59.1406 71.9813 59.0312C71.963 58.9219 71.9813 58.7943 72.0359 58.6484ZM81.1688 46.1523C80.9318 46.4987 80.6674 46.8177 80.3758 47.1094C80.0841 47.3828 79.7924 47.6745 79.5008 47.9844C79.2273 48.276 78.9813 48.6042 78.7625 48.9688C78.5438 49.3151 78.3888 49.7344 78.2977 50.2266C79.0633 50.1354 79.8654 49.9258 80.7039 49.5977C81.5424 49.2513 82.3354 48.9232 83.0828 48.6133C82.9917 47.9388 82.7547 47.401 82.3719 47C81.9891 46.5807 81.588 46.2982 81.1688 46.1523ZM94.2992 61.9023C92.6951 61.6836 91.7198 60.8359 91.3734 59.3594L91.4008 59.0586C91.4737 58.8398 91.5557 58.5938 91.6469 58.3203C91.738 58.0104 91.8383 57.7096 91.9477 57.418C92.057 57.1081 92.2393 56.8346 92.4945 56.5977C92.5492 56.4336 92.6495 56.1875 92.7953 55.8594C92.9594 55.513 93.2237 55.0026 93.5883 54.3281C93.8799 53.7995 94.1078 53.3802 94.2719 53.0703C94.4542 52.7604 94.6 52.5234 94.7094 52.3594C94.5271 52.0312 94.2719 51.7122 93.9437 51.4023C93.6521 50.8555 93.3969 50.3359 93.1781 49.8438C92.9776 49.3333 92.8227 48.8776 92.7133 48.4766C92.6951 48.0391 92.6221 47.5924 92.4945 47.1367C92.4398 46.8997 92.3852 46.6628 92.3305 46.4258C92.2758 46.1888 92.2484 45.9427 92.2484 45.6875C92.1755 45.5599 92.1117 45.3958 92.057 45.1953L92.1117 44.8672C92.2029 44.7214 92.2211 44.5299 92.1664 44.293C92.1299 44.0378 92.0753 43.7826 92.0023 43.5273C91.9477 43.2904 91.893 43.0443 91.8383 42.7891C91.8018 42.5156 91.7927 42.2513 91.8109 41.9961C91.8292 41.7409 91.893 41.4948 92.0023 41.2578C92.1299 41.0208 92.3396 40.8203 92.6312 40.6562L92.9047 40.4648L93.1781 40.6289C93.3786 40.7565 93.5701 40.8659 93.7523 40.957C93.9346 41.0482 94.1169 41.1393 94.2992 41.2305C94.518 41.3398 94.7367 41.4583 94.9555 41.5859C95.1742 41.6953 95.4112 41.8229 95.6664 41.9688L95.9398 42.1602L95.9125 42.4609C95.9125 42.4974 95.9216 42.543 95.9398 42.5977C95.9581 42.6523 95.9854 42.6979 96.0219 42.7344L96.3227 42.8164L96.35 43.1992V43.5273C96.35 43.6914 96.3591 43.8099 96.3773 43.8828C96.3956 43.9375 96.432 44.0013 96.4867 44.0742L96.6234 44.4297C96.6234 44.7578 96.6508 45.0495 96.7055 45.3047C96.7602 45.5599 96.824 45.8151 96.8969 46.0703C96.988 46.3255 97.0609 46.5898 97.1156 46.8633C97.1703 47.1185 97.1794 47.401 97.143 47.7109C97.2523 47.6562 97.3617 47.5742 97.4711 47.4648C97.5076 47.4284 97.544 47.3919 97.5805 47.3555C97.6352 47.319 97.6898 47.2826 97.7445 47.2461L99.6586 44.6484L99.6039 44.3203L100.287 43.6641C100.47 43.5182 100.643 43.3724 100.807 43.2266C100.971 43.0625 101.108 42.8802 101.217 42.6797L101.381 42.4336C102.202 41.3398 103.259 40.6654 104.553 40.4102L105.018 40.3008L105.155 40.7383C105.246 40.9935 105.419 41.2214 105.674 41.4219C105.948 41.6042 106.239 41.7865 106.549 41.9688L106.85 42.1602C106.959 42.3789 107.014 42.543 107.014 42.6523C107.014 42.7617 107.005 42.8529 106.987 42.9258L107.123 43.2812C106.923 43.8099 106.704 44.1927 106.467 44.4297C106.23 44.6484 105.984 44.8581 105.729 45.0586C105.528 45.2227 105.346 45.3867 105.182 45.5508C105.018 45.7148 104.89 45.8971 104.799 46.0977L104.58 46.3711C104.125 46.6081 103.833 46.9544 103.705 47.4102L103.596 47.793H103.186C103.168 47.793 103.122 47.8385 103.049 47.9297C102.976 48.0026 102.867 48.194 102.721 48.5039C102.557 48.7227 102.439 48.8685 102.366 48.9414C102.311 48.9961 102.265 49.0417 102.229 49.0781C102.192 49.1693 102.156 49.2513 102.12 49.3242C102.101 49.3971 102.074 49.4883 102.037 49.5977L101.873 49.8164C101.709 49.9622 101.591 50.1081 101.518 50.2539C101.445 50.3815 101.363 50.5365 101.272 50.7188C101.199 50.8828 101.117 51.056 101.026 51.2383C100.935 51.4023 100.807 51.5664 100.643 51.7305L100.698 52.0312L100.479 52.2227C100.333 52.3503 100.205 52.5143 100.096 52.7148C99.9867 52.8971 99.8773 53.0885 99.768 53.2891C99.6586 53.5078 99.5401 53.7266 99.4125 53.9453C99.2849 54.1641 99.1208 54.3646 98.9203 54.5469C98.7927 54.875 98.6742 55.1302 98.5648 55.3125C98.4737 55.4948 98.3096 55.7135 98.0727 55.9688C97.8539 56.8438 97.3344 57.7826 96.5141 58.7852C96.4958 58.9857 96.432 59.1862 96.3227 59.3867C96.2315 59.569 96.1312 59.7422 96.0219 59.9062C95.9854 59.9792 95.9398 60.0612 95.8852 60.1523C95.8487 60.2253 95.8214 60.2799 95.8031 60.3164L95.7211 60.6172C95.6117 60.8177 95.4932 60.9818 95.3656 61.1094C95.2562 61.237 95.1469 61.3555 95.0375 61.4648C94.9828 61.5013 94.9281 61.5469 94.8734 61.6016C94.837 61.6562 94.8005 61.7018 94.7641 61.7383L94.2992 61.9023Z" fill="#1A6222"/>
</g>
<defs>
<clipPath id="clip0_4_86">
<rect width="110" height="67" fill="white"/>
</clipPath>
</defs>
</svg>
